<svg width="30" height="30" viewBox="0 0 30 30" fill="none" xmlns="http://www.w3.org/2000/svg">
<path d="M19 27.5H11C10.38 27.5034 9.7809 27.2764 9.31893 26.8629C8.85695 26.4494 8.56509 25.8791 8.5 25.2625L6.25 3.75H23.75L21.4875 25.2625C21.4226 25.8769 21.1326 26.4455 20.6732 26.8587C20.2139 27.2719 19.6178 27.5003 19 27.5Z" stroke="black" stroke-width="2" stroke-linecap="round" stroke-linejoin="round"/>
<path d="M7.5 15C8.58185 14.1886 9.89769 13.75 11.25 13.75C12.6023 13.75 13.9181 14.1886 15 15C16.0819 15.8114 17.3977 16.25 18.75 16.25C20.1023 16.25 21.4181 15.8114 22.5 15" stroke="black" stroke-width="2" stroke-linecap="round" stroke-linejoin="round"/>
</svg>
