<svg width="30" height="30" viewBox="0 0 30 30" fill="none" xmlns="http://www.w3.org/2000/svg">
<path d="M3.75 10C3.75 6.465 3.75 4.69625 4.84875 3.59875C5.94625 2.5 7.715 2.5 11.25 2.5H18.75C22.285 2.5 24.0538 2.5 25.1513 3.59875C26.25 4.69625 26.25 6.465 26.25 10V20C26.25 23.535 26.25 25.3038 25.1513 26.4013C24.0538 27.5 22.285 27.5 18.75 27.5H11.25C7.715 27.5 5.94625 27.5 4.84875 26.4013C3.75 25.3038 3.75 23.535 3.75 20V10Z" stroke="black" stroke-width="1.5"/>
<path d="M10 3.125V27.5M2.5 15H5M2.5 20H5M2.5 10H5M14.375 8.125H20.625M14.375 12.5H20.625" stroke="black" stroke-width="1.5" stroke-linecap="round"/>
</svg>
